<?xml version="1.0" encoding="utf-8"?>
<!-- Generator: Adobe Illustrator 25.3.1, SVG Export Plug-In . SVG Version: 6.00 Build 0)  -->
<svg version="1.1" id="图层_1" xmlns="http://www.w3.org/2000/svg" xmlns:xlink="http://www.w3.org/1999/xlink" x="0px" y="0px"
	 width="170px" height="56px" viewBox="0 0 170 56" style="enable-background:new 0 0 170 56;" xml:space="preserve">
<style type="text/css">
	.st0{fill:#191C20;}
	.st1{fill:#FFFFFF;}
</style>
<g>
	<path class="st0" d="M162,56H8c-4.418,0-8-3.582-8-8V8c0-4.418,3.582-8,8-8h154c4.418,0,8,3.582,8,8v40
		C170,52.418,166.418,56,162,56z"/>
</g>
<path class="st1" d="M39.506,26.814c-0.031-3.755,3.054-5.581,3.189-5.665c-1.751-2.56-4.461-2.916-5.41-2.948
	c-2.272-0.241-4.482,1.374-5.639,1.374c-1.178,0-2.971-1.343-4.889-1.311c-2.47,0.042-4.795,1.479-6.056,3.724
	c-2.616,4.563-0.667,11.277,1.845,14.969c1.261,1.804,2.72,3.829,4.649,3.755c1.876-0.073,2.585-1.206,4.847-1.206
	c2.251,0,2.908,1.206,4.868,1.164c2.022-0.032,3.283-1.815,4.503-3.64c1.449-2.067,2.033-4.112,2.053-4.217
	c-0.052-0.021-3.919-1.511-3.961-6L39.506,26.814z M35.805,15.779c1.011-1.269,1.699-3,1.511-4.763
	c-1.459,0.063-3.294,1.018-4.347,2.266c-0.928,1.101-1.762,2.895-1.553,4.584C33.063,17.992,34.751,17.027,35.805,15.779
	L35.805,15.779z M71.314,40.452h-2.627l-1.438-4.553h-5.003l-1.366,4.553h-2.554l4.951-15.494h3.064L71.314,40.452L71.314,40.452z
	 M66.822,33.99l-1.303-4.039c-0.136-0.42-0.396-1.385-0.771-2.916h-0.052l-0.73,2.916l-1.282,4.039H66.822z M84.041,34.735
	c0,1.899-0.511,3.399-1.543,4.5c-0.917,0.986-2.064,1.469-3.419,1.469c-1.47,0-2.522-0.524-3.169-1.584v5.864h-2.47V32.951
	l-0.094-3.672h2.168l0.136,1.773h0.042c0.823-1.332,2.074-2.004,3.742-2.004c1.313,0,2.397,0.524,3.273,1.563
	C83.604,31.66,84.041,33.024,84.041,34.735L84.041,34.735z M81.529,34.819c0-1.091-0.24-1.983-0.73-2.686
	c-0.482-0.708-1.291-1.123-2.147-1.101c-0.605,0-1.157,0.21-1.657,0.608c-0.495,0.406-0.837,0.968-0.969,1.595
	c-0.073,0.304-0.115,0.556-0.115,0.755v1.867c0,0.808,0.25,1.5,0.74,2.056c0.49,0.556,1.136,0.839,1.928,0.839
	c0.928,0,1.647-0.367,2.168-1.08C81.268,36.948,81.529,36.004,81.529,34.819z M96.799,34.735c0,1.899-0.511,3.399-1.543,4.5
	c-0.917,0.986-2.064,1.469-3.419,1.469c-1.47,0-2.522-0.524-3.169-1.584v5.864h-2.47V32.951l-0.094-3.672h2.168l0.136,1.773h0.042
	c0.823-1.332,2.074-2.004,3.742-2.004c1.313,0,2.397,0.524,3.273,1.563C96.361,31.66,96.799,33.024,96.799,34.735L96.799,34.735z
	 M94.287,34.819c0-1.091-0.24-1.983-0.73-2.686c-0.482-0.708-1.291-1.123-2.147-1.101c-0.605,0-1.157,0.21-1.657,0.608
	c-0.49,0.409-0.813,0.934-0.969,1.595c-0.073,0.304-0.115,0.556-0.115,0.755v1.867c0,0.808,0.25,1.5,0.74,2.056
	s1.136,0.839,1.928,0.839c0.928,0,1.657-0.367,2.168-1.08C94.037,36.948,94.287,36.004,94.287,34.819z M111.079,36.109
	c0,1.322-0.459,2.392-1.365,3.221c-1.001,0.902-2.397,1.353-4.19,1.353c-1.657,0-2.981-0.325-3.982-0.965l0.573-2.067
	c1.078,0.64,2.311,0.974,3.565,0.965c0.928,0,1.657-0.21,2.168-0.629c0.521-0.42,0.782-0.986,0.782-1.689
	c0.011-0.592-0.218-1.164-0.636-1.584c-0.427-0.43-1.136-0.829-2.126-1.196c-2.721-1.018-4.065-2.497-4.065-4.437
	c0-1.269,0.48-2.308,1.428-3.126c0.948-0.808,2.21-1.217,3.784-1.217c1.397,0,2.564,0.241,3.492,0.734l-0.625,2.014
	c-0.876-0.472-1.855-0.713-2.96-0.713c-0.865,0-1.553,0.22-2.043,0.64c-0.406,0.388-0.615,0.85-0.615,1.406
	c-0.011,0.586,0.251,1.145,0.709,1.511c0.407,0.367,1.157,0.766,2.241,1.196c1.324,0.535,2.293,1.164,2.919,1.888
	c0.636,0.724,0.948,1.626,0.948,2.696L111.079,36.109z M119.251,31.147h-2.721v5.423c0,1.374,0.48,2.067,1.438,2.067
	c0.438,0,0.803-0.042,1.094-0.115l0.073,1.888c-0.49,0.178-1.126,0.273-1.918,0.273c-0.98,0-1.73-0.304-2.283-0.902
	s-0.823-1.605-0.823-3.011v-5.633h-1.616V29.28h1.616v-2.046l2.418-0.734v2.78h2.721L119.251,31.147L119.251,31.147z
	 M131.488,34.777c0,1.72-0.49,3.126-1.459,4.228c-1.021,1.133-2.377,1.699-4.065,1.699c-1.626,0-2.929-0.546-3.898-1.626
	c-0.969-1.08-1.449-2.455-1.449-4.112c0-1.731,0.5-3.147,1.49-4.248c1.001-1.101,2.346-1.657,4.034-1.657
	c1.626,0,2.939,0.546,3.93,1.636C131.019,31.746,131.488,33.11,131.488,34.777L131.488,34.777z M128.935,34.829
	c0-1.028-0.219-1.899-0.657-2.633c-0.521-0.892-1.261-1.332-2.22-1.332c-0.991,0-1.751,0.441-2.262,1.332
	c-0.448,0.734-0.657,1.626-0.657,2.685c0,1.028,0.219,1.909,0.657,2.633c0.531,0.892,1.282,1.332,2.241,1.332
	c0.938,0,1.678-0.451,2.22-1.353C128.705,36.738,128.935,35.856,128.935,34.829L128.935,34.829z M139.514,31.462
	c-0.24-0.042-0.5-0.063-0.782-0.063c-0.865,0-1.542,0.325-2.011,0.986c-0.407,0.577-0.615,1.322-0.615,2.203v5.864h-2.471v-7.658
	l-0.072-3.514h2.147l0.094,2.14h0.072c0.261-0.734,0.668-1.332,1.23-1.773c0.553-0.399,1.147-0.598,1.783-0.598
	c0.229,0,0.438,0.021,0.615,0.042C139.504,29.091,139.514,31.462,139.514,31.462z M150.542,34.336c0,0.441-0.031,0.818-0.094,1.122
	h-7.4c0.031,1.101,0.385,1.951,1.073,2.528c0.626,0.514,1.428,0.776,2.419,0.776c1.094,0,2.095-0.178,2.991-0.524l0.386,1.72
	c-1.053,0.462-2.293,0.692-3.721,0.692c-1.72,0-3.075-0.514-4.055-1.532c-0.98-1.018-1.47-2.392-1.47-4.102
	c0-1.678,0.459-3.084,1.376-4.207c0.959-1.196,2.251-1.794,3.878-1.794c1.594,0,2.814,0.598,3.627,1.794
	c0.657,0.965,0.99,2.13,0.99,3.525V34.336z M148.186,33.696c0.021-0.734-0.146-1.374-0.479-1.909
	c-0.427-0.692-1.084-1.038-1.96-1.038c-0.802,0-1.459,0.336-1.959,1.007c-0.407,0.535-0.657,1.185-0.73,1.93L148.186,33.696
	L148.186,33.696z M65.634,19.419h-1.293l-0.709-2.234h-2.46l-0.678,2.234h-1.251l2.43-7.616h1.501L65.634,19.419z M63.414,16.24
	l-0.636-1.993l-0.386-1.437h-0.021l-0.365,1.437l-0.625,1.993C61.381,16.24,63.414,16.24,63.414,16.24z M71.721,13.922l-2.064,5.497
	h-1.178l-2.001-5.497h1.303l0.928,2.906l0.396,1.385h0.031l0.396-1.385l0.917-2.906C70.449,13.922,71.721,13.922,71.721,13.922z
	 M76.12,19.419l-0.094-0.629h-0.031c-0.375,0.504-0.907,0.755-1.595,0.755c-0.98,0-1.668-0.692-1.668-1.615
	c0-1.353,1.167-2.056,3.189-2.056v-0.105c0-0.724-0.386-1.08-1.136-1.08c-0.542,0-1.011,0.136-1.428,0.409l-0.25-0.797
	c0.5-0.315,1.136-0.472,1.876-0.472c1.428,0,2.147,0.755,2.147,2.276v2.025c0,0.556,0.021,0.986,0.083,1.311l-1.094-0.021
	L76.12,19.419z M75.953,16.681c-1.345,0-2.022,0.325-2.022,1.112c0,0.577,0.344,0.86,0.834,0.86c0.615,0,1.188-0.472,1.188-1.122
	C75.953,17.531,75.953,16.681,75.953,16.681z M79.831,13.02c-0.407,0-0.72-0.315-0.72-0.734s0.323-0.724,0.741-0.724
	s0.751,0.304,0.74,0.724C80.592,12.727,80.279,13.02,79.831,13.02z M79.247,13.922h1.21v5.486h-1.21
	C79.247,19.408,79.247,13.922,79.247,13.922z M82.614,11.404h1.209v8.004h-1.209V11.404z M88.972,19.419l-0.094-0.629h-0.031
	c-0.375,0.504-0.907,0.755-1.595,0.755c-0.98,0-1.668-0.692-1.668-1.615c0-1.353,1.167-2.056,3.19-2.056v-0.105
	c0-0.724-0.386-1.08-1.136-1.08c-0.542,0-1.011,0.136-1.428,0.409l-0.25-0.808c0.5-0.315,1.136-0.472,1.876-0.472
	c1.428,0,2.147,0.755,2.147,2.276v2.025c0,0.556,0.021,0.986,0.073,1.311h-1.084V19.419L88.972,19.419z M88.805,16.681
	c-1.345,0-2.022,0.325-2.022,1.112c0,0.577,0.344,0.86,0.834,0.86c0.615,0,1.188-0.472,1.188-1.122
	C88.805,17.531,88.805,16.681,88.805,16.681z M94.903,19.545c-0.714,0.034-1.383-0.346-1.72-0.976h-0.021l-0.073,0.85h-1.032
	l0.042-1.479v-6.536h1.22v3.326h0.021c0.365-0.608,0.938-0.913,1.741-0.913c1.313,0,2.231,1.133,2.231,2.78
	c0,1.699-1.022,2.948-2.408,2.948H94.903z M94.653,14.772c-0.698,0-1.334,0.608-1.334,1.458v0.965c0,0.755,0.573,1.374,1.313,1.374
	c0.907,0,1.449-0.745,1.449-1.93C96.081,15.527,95.518,14.772,94.653,14.772z M99.103,11.404h1.209v8.004h-1.209
	C99.103,19.408,99.103,11.404,99.103,11.404z M106.91,16.964h-3.638c0.021,1.039,0.709,1.626,1.72,1.626
	c0.542,0,1.032-0.094,1.47-0.262l0.188,0.85c-0.511,0.231-1.115,0.336-1.824,0.336c-1.709,0-2.721-1.08-2.721-2.769
	c0-1.678,1.032-2.948,2.585-2.948c1.386,0,2.272,1.039,2.272,2.612c0,0.22-0.01,0.409-0.052,0.556L106.91,16.964z M105.805,16.093
	c0-0.85-0.427-1.448-1.199-1.448c-0.698,0-1.24,0.608-1.324,1.448H105.805L105.805,16.093z M114.259,19.545
	c-1.595,0-2.627-1.196-2.627-2.822c0-1.699,1.053-2.906,2.721-2.906c1.574,0,2.627,1.143,2.627,2.811
	C116.98,18.338,115.896,19.544,114.259,19.545L114.259,19.545z M114.311,14.709c-0.876,0-1.438,0.829-1.438,1.972
	c0,1.133,0.573,1.951,1.428,1.951s1.428-0.881,1.428-1.983C115.719,15.537,115.166,14.708,114.311,14.709L114.311,14.709z
	 M123.494,19.418h-1.209v-3.157c0-0.976-0.375-1.458-1.105-1.458c-0.719,0-1.209,0.619-1.209,1.343v3.262h-1.209v-3.913
	l-0.042-1.574h1.063l0.052,0.85h0.032c0.323-0.587,0.99-0.965,1.73-0.965c1.146,0,1.897,0.881,1.897,2.318
	C123.494,16.124,123.494,19.418,123.494,19.418z M131.426,14.845h-1.334v2.665c0,0.682,0.24,1.018,0.709,1.018
	c0.182,0.001,0.364-0.016,0.542-0.052l0.031,0.923c-0.24,0.094-0.552,0.136-0.938,0.136c-0.959,0-1.522-0.535-1.522-1.92v-2.77
	h-0.792v-0.913h0.792v-1.007l1.188-0.367v1.364h1.334v0.923 M137.847,19.419h-1.209v-3.137c0-0.986-0.376-1.479-1.105-1.479
	c-0.626,0-1.209,0.43-1.209,1.301v3.304h-1.209v-8.004h1.209v3.294h0.02c0.342-0.574,0.969-0.916,1.637-0.892
	c1.157,0,1.866,0.902,1.866,2.339L137.847,19.419L137.847,19.419z M144.038,16.964H140.4c0.021,1.039,0.709,1.626,1.72,1.626
	c0.502,0.004,1-0.085,1.47-0.262l0.188,0.85c-0.511,0.231-1.116,0.336-1.825,0.336c-1.709,0-2.72-1.08-2.72-2.769
	c0-1.678,1.032-2.948,2.585-2.948c1.386,0,2.272,1.039,2.272,2.612c0,0.22-0.01,0.409-0.052,0.556L144.038,16.964z M142.933,16.093
	c0-0.85-0.427-1.448-1.198-1.448c-0.699,0-1.251,0.608-1.324,1.448C140.411,16.093,142.933,16.093,142.933,16.093z"/>
</svg>
