<?xml version="1.0" encoding="utf-8"?>
<!-- Generator: Adobe Illustrator 24.3.0, SVG Export Plug-In . SVG Version: 6.00 Build 0)  -->
<svg version="1.2" baseProfile="tiny" id="Layer_1" xmlns="http://www.w3.org/2000/svg" xmlns:xlink="http://www.w3.org/1999/xlink"
	 x="0px" y="0px" viewBox="0 0 36 36" overflow="visible" xml:space="preserve">
<g>
	<path fill="#4285F4" d="M35.64,18.405c0-1.485-0.112-2.565-0.382-3.69H18.36v6.683h9.922c-0.203,1.665-1.282,4.163-3.69,5.85
		l-0.022,0.225l5.333,4.14l0.36,0.045C33.683,28.507,35.64,23.872,35.64,18.405"/>
	<path fill="#34A853" d="M18.36,36c4.86,0,8.932-1.597,11.925-4.365l-5.67-4.41c-1.53,1.057-3.555,1.8-6.232,1.8
		c-4.77,0-8.798-3.15-10.238-7.47l-0.203,0.022l-5.58,4.298l-0.067,0.202C5.242,31.95,11.318,36,18.36,36"/>
	<path fill="#FBBC05" d="M8.122,21.555C7.74,20.43,7.515,19.237,7.515,18S7.74,15.57,8.1,14.445v-0.248L2.475,9.832l-0.18,0.09
		C1.057,12.352,0.36,15.097,0.36,18s0.697,5.647,1.912,8.077L8.122,21.555"/>
	<path fill="#EB4335" d="M18.36,6.952c3.375,0,5.67,1.463,6.952,2.678l5.085-4.95C27.27,1.778,23.22,0,18.36,0
		C11.318,0,5.242,4.05,2.272,9.922L8.1,14.445C9.562,10.102,13.59,6.952,18.36,6.952"/>
</g>
</svg>
