<?xml version="1.0" encoding="utf-8"?>
<!-- Generator: Adobe Illustrator 27.0.0, SVG Export Plug-In . SVG Version: 6.00 Build 0)  -->
<svg version="1.1" id="图层_1" xmlns="http://www.w3.org/2000/svg" xmlns:xlink="http://www.w3.org/1999/xlink" x="0px" y="0px"
	 width="89.133px" height="33px" viewBox="0 0 89.133 33" enable-background="new 0 0 89.133 33" xml:space="preserve">
<path fill="#253B80" d="M11.344,6.749H4.505c-0.468,0-0.866,0.34-0.939,0.802L0.8,25.088c-0.049,0.311,0.164,0.603,0.475,0.651
	c0.029,0.005,0.059,0.007,0.089,0.007h3.265c0.468,0,0.867-0.341,0.939-0.803l0.746-4.73c0.072-0.462,0.47-0.803,0.938-0.803h2.165
	c4.505,0,7.105-2.18,7.784-6.5c0.306-1.89,0.013-3.375-0.872-4.415C15.357,7.353,13.633,6.749,11.344,6.749z M12.133,13.154
	c-0.374,2.454-2.249,2.454-4.062,2.454H7.039l0.724-4.583c0.044-0.277,0.283-0.481,0.563-0.481h0.473c1.235,0,2.4,0,3.002,0.704
	C12.16,11.668,12.27,12.292,12.133,13.154z M31.787,13.075h-3.275c-0.28,0-0.519,0.204-0.563,0.481l-0.145,0.916l-0.229-0.332
	c-0.709-1.029-2.29-1.373-3.868-1.373c-3.619,0-6.71,2.741-7.312,6.586c-0.313,1.918,0.132,3.752,1.22,5.031
	c0.998,1.176,2.426,1.666,4.125,1.666c2.916,0,4.533-1.875,4.533-1.875l-0.146,0.91c-0.05,0.311,0.162,0.603,0.473,0.653
	c0.029,0.005,0.059,0.007,0.089,0.007h2.95c0.468,0,0.867-0.341,0.939-0.803l1.77-11.209c0.05-0.31-0.161-0.601-0.471-0.651
	C31.847,13.077,31.817,13.075,31.787,13.075z M27.222,19.449c-0.316,1.871-1.801,3.127-3.695,3.127
	c-0.951,0-1.711-0.305-2.199-0.883c-0.484-0.574-0.668-1.391-0.514-2.301c0.295-1.855,1.805-3.152,3.67-3.152
	c0.93,0,1.686,0.309,2.184,0.892C27.167,17.721,27.365,18.543,27.222,19.449z M49.229,13.075h-3.291
	c-0.315,0-0.61,0.157-0.787,0.417l-4.539,6.686l-1.924-6.425c-0.121-0.402-0.492-0.678-0.912-0.678h-3.234
	c-0.315-0.001-0.571,0.254-0.572,0.568c0,0.063,0.01,0.126,0.031,0.186l3.625,10.638l-3.408,4.811
	c-0.182,0.257-0.122,0.613,0.135,0.795c0.096,0.069,0.212,0.105,0.33,0.105h3.287c0.312,0,0.603-0.152,0.781-0.408l10.946-15.8
	c0.179-0.259,0.115-0.614-0.143-0.793C49.458,13.111,49.345,13.075,49.229,13.075L49.229,13.075z"/>
<path fill="#179BD7" d="M60.125,6.749h-6.84c-0.467,0-0.865,0.34-0.938,0.802l-2.766,17.537c-0.049,0.31,0.163,0.602,0.473,0.651
	c0.029,0.005,0.059,0.007,0.089,0.007h3.51c0.327,0,0.605-0.239,0.656-0.562l0.785-4.971c0.072-0.462,0.47-0.803,0.938-0.803h2.164
	c4.506,0,7.105-2.18,7.785-6.5c0.307-1.89,0.012-3.375-0.873-4.415C64.137,7.353,62.414,6.749,60.125,6.749z M60.914,13.154
	c-0.373,2.454-2.248,2.454-4.062,2.454h-1.031l0.725-4.583c0.043-0.277,0.282-0.481,0.562-0.481h0.473c1.234,0,2.4,0,3.002,0.704
	C60.942,11.668,61.051,12.292,60.914,13.154z M80.567,13.075h-3.273c-0.281-0.001-0.519,0.204-0.562,0.481l-0.145,0.916l-0.23-0.332
	c-0.709-1.029-2.289-1.373-3.867-1.373c-3.619,0-6.709,2.741-7.311,6.586c-0.312,1.918,0.131,3.752,1.219,5.031
	c1,1.176,2.426,1.666,4.125,1.666c2.916,0,4.533-1.875,4.533-1.875l-0.146,0.91c-0.05,0.311,0.162,0.603,0.473,0.653
	c0.03,0.005,0.061,0.007,0.091,0.007h2.949c0.468,0,0.866-0.341,0.938-0.803l1.771-11.209c0.048-0.312-0.166-0.603-0.477-0.651
	C80.625,13.077,80.596,13.075,80.567,13.075z M76.002,19.449c-0.314,1.871-1.801,3.127-3.695,3.127
	c-0.949,0-1.711-0.305-2.199-0.883c-0.484-0.574-0.666-1.391-0.514-2.301c0.297-1.855,1.805-3.152,3.67-3.152
	c0.93,0,1.686,0.309,2.184,0.892C75.949,17.721,76.147,18.543,76.002,19.449z M84.428,7.23l-2.807,17.858
	c-0.049,0.31,0.163,0.602,0.473,0.651c0.029,0.005,0.059,0.007,0.089,0.007h2.822c0.469,0,0.867-0.34,0.939-0.803l2.768-17.536
	c0.049-0.311-0.163-0.603-0.474-0.652c-0.029-0.005-0.059-0.007-0.088-0.007h-3.16C84.709,6.749,84.471,6.953,84.428,7.23z"/>
</svg>
